<svg width="126" height="38" viewBox="0 0 126 38" fill="none" xmlns="http://www.w3.org/2000/svg">
<path d="M17.2672 18.4C17.4539 18.1333 17.7205 17.6667 18.0672 17C18.9205 15.48 19.4272 14.72 19.5872 14.72C19.7739 14.72 19.8672 14.8267 19.8672 15.04C19.8672 16.3467 19.1872 18 17.8272 20C15.3739 23.6 12.1072 25.4 8.02719 25.4C6.88052 25.4 5.82719 25.1333 4.86719 24.6C3.90719 24.0667 3.14719 23.3867 2.58719 22.56C1.44052 20.88 0.867188 19.12 0.867188 17.28C0.867188 12.64 2.06719 8.90667 4.46719 6.08C6.89385 3.22667 9.76052 1.8 13.0672 1.8C14.3205 1.8 15.3472 2.17333 16.1472 2.92C16.9472 3.64 17.3472 4.56 17.3472 5.68C17.3472 6.8 17.0672 7.84 16.5072 8.8C15.9472 9.76 15.2672 10.24 14.4672 10.24C13.6939 10.24 13.3072 10.0267 13.3072 9.6C13.3072 9.12 13.5605 8.57333 14.0672 7.96C14.6005 7.34667 14.8672 6.73333 14.8672 6.12C14.8672 4.22667 13.8539 3.28 11.8272 3.28C9.82719 3.28 8.01385 4.62667 6.38719 7.32C4.76052 10.0133 3.94719 12.7867 3.94719 15.64C3.94719 17.6133 4.50719 19.3733 5.62719 20.92C6.74719 22.44 8.32052 23.2 10.3472 23.2C12.7472 23.2 15.0539 21.6 17.2672 18.4ZM20.6716 22.84L20.7116 24.08C20.7116 24.8267 20.4982 25.2 20.0716 25.2C19.4316 25.2 18.8182 25.12 18.2316 24.96C17.6449 24.7733 17.3516 24.5333 17.3516 24.24C17.3516 23.92 17.4182 22.8667 17.5516 21.08C17.7116 19.2667 17.7916 17.9067 17.7916 17V14.68C17.7916 7.85333 19.0049 3.50667 21.4316 1.64C21.9916 1.21333 22.5649 0.999999 23.1516 0.999999C23.4182 0.999999 23.6849 1.29333 23.9516 1.88C24.2182 2.46667 24.3516 3.22666 24.3516 4.16C24.3516 6.45333 23.9649 8.6 23.1916 10.6C22.4182 12.6 21.6316 14.1333 20.8316 15.2C20.8049 15.8667 20.7916 16.9067 20.7916 18.32C20.8982 18.16 21.4582 17.2533 22.4716 15.6C23.4849 13.9467 24.3382 12.7333 25.0316 11.96C25.7516 11.1867 26.3916 10.8 26.9516 10.8C27.5116 10.8 28.0049 10.9867 28.4316 11.36C28.8849 11.7333 29.1116 12.2 29.1116 12.76C29.1116 13.9333 28.9782 15.6667 28.7116 17.96C28.4716 20.2267 28.3516 21.6667 28.3516 22.28C28.3516 22.8667 28.4316 23.16 28.5916 23.16C29.0449 23.1333 29.6716 22.5733 30.4716 21.48C31.2716 20.36 32.0582 18.9333 32.8316 17.2C33.6316 15.4667 34.1116 14.6 34.2716 14.6C34.4582 14.6 34.5516 14.7067 34.5516 14.92C34.5516 15.6667 34.1649 16.8533 33.3916 18.48C31.2849 22.96 29.5116 25.2 28.0716 25.2C27.0316 25.2 26.2449 24.9867 25.7116 24.56C25.5249 24.3733 25.4316 23.8933 25.4316 23.12C25.4316 22.32 25.4982 21.04 25.6316 19.28C25.7916 17.4933 25.8716 16.16 25.8716 15.28C25.8716 14.4 25.7116 13.96 25.3916 13.96C25.0982 13.96 24.2982 14.88 22.9916 16.72C21.6849 18.5333 20.9916 19.6933 20.9116 20.2C20.7516 21.1333 20.6716 22.0133 20.6716 22.84ZM23.2716 5.04C23.2716 3.92 23.1249 3.36 22.8316 3.36C22.3516 3.36 21.8849 4.84 21.4316 7.8C21.1916 9.37333 21.0182 11.2 20.9116 13.28C22.4849 10 23.2716 7.25333 23.2716 5.04ZM37.0753 25.2C35.582 25.2 34.3953 24.64 33.5153 23.52C32.6353 22.3733 32.1953 21.08 32.1953 19.64C32.1953 16.7333 32.8086 14.5333 34.0353 13.04C35.262 11.5467 36.8486 10.8 38.7953 10.8C39.702 10.8 40.4486 11.0533 41.0353 11.56C41.622 12.04 41.9153 12.7067 41.9153 13.56C41.9153 15.16 41.2353 16.5067 39.8753 17.6C38.542 18.6667 36.902 19.2267 34.9553 19.28C35.062 20.32 35.4086 21.2267 35.9953 22C36.6086 22.7467 37.3153 23.12 38.1153 23.12C38.9153 23.12 39.6353 22.9333 40.2753 22.56C40.9153 22.1867 41.502 21.6533 42.0353 20.96C43.1553 19.4933 44.1153 17.8267 44.9153 15.96C45.1286 15.48 45.2886 15.1333 45.3953 14.92C45.5286 14.7067 45.662 14.6 45.7953 14.6C45.9553 14.6 46.0353 14.7067 46.0353 14.92C46.0353 16.2533 45.222 18.2533 43.5953 20.92C41.8353 23.7733 39.662 25.2 37.0753 25.2ZM34.9553 18.32C36.5286 18.0533 37.6753 17.5467 38.3953 16.8C39.142 16.0533 39.5153 15.08 39.5153 13.88C39.5153 12.68 39.1286 12.08 38.3553 12.08C37.422 12.08 36.6353 12.7333 35.9953 14.04C35.3553 15.32 35.0086 16.7467 34.9553 18.32ZM49.8741 16.56C51.3141 16.2133 52.5141 15.7733 53.4741 15.24C54.4607 14.7067 54.9807 14.44 55.0341 14.44C55.1941 14.44 55.2741 14.5733 55.2741 14.84C55.2741 15.1067 55.0074 15.44 54.4741 15.84C53.3541 16.6667 51.9541 17.3733 50.2741 17.96C50.9674 20.6 51.3141 23.4 51.3141 26.36C51.3141 28.84 51.0341 31.2133 50.4741 33.48C50.1541 34.76 49.6474 35.8 48.9541 36.6C48.2874 37.4 47.4607 37.8 46.4741 37.8C45.6207 37.8 45.0341 37.4267 44.7141 36.68C44.3141 35.8 44.0874 34.96 44.0341 34.16C43.9541 32.9067 43.9141 30.8667 43.9141 28.04C43.9141 25.2133 44.1274 21.8 44.5541 17.8C43.5941 17.1067 43.1141 16.2667 43.1141 15.28C43.1141 14.2667 43.3274 13.4933 43.7541 12.96C44.1807 12.4 44.7141 12.04 45.3541 11.88C45.7274 9.56 46.0874 7.56 46.4341 5.88C46.8074 4.2 47.3674 2.84 48.1141 1.8C48.8607 0.733333 49.6074 0.2 50.3541 0.2C51.2074 0.2 51.6341 1.14667 51.6341 3.04C51.6341 6.02667 50.5274 9.38667 48.3141 13.12C48.8741 13.92 49.3941 15.0667 49.8741 16.56ZM47.0741 18.56C46.8341 21.84 46.7141 25.6 46.7141 29.84C46.7141 34.1067 46.9407 36.24 47.3941 36.24C48.1941 36.24 48.8607 35.1867 49.3941 33.08C49.9274 31 50.1941 28.6533 50.1941 26.04C50.1941 23.4533 49.9007 20.8533 49.3141 18.24C48.5141 18.4533 47.7674 18.56 47.0741 18.56ZM47.6741 12.56C48.4474 11.28 49.1541 9.77333 49.7941 8.04C50.4341 6.28 50.7541 4.81333 50.7541 3.64C50.7541 2.46667 50.6341 1.88 50.3941 1.88C49.9674 1.88 49.5007 2.85333 48.9941 4.8C48.5141 6.74667 48.0741 9.33333 47.6741 12.56ZM47.6741 14.16L47.4341 14.56L47.2341 16.6C47.5807 16.7067 47.8874 16.76 48.1541 16.76C48.4474 16.76 48.6874 16.7467 48.8741 16.72C48.5274 15.68 48.1274 14.8267 47.6741 14.16ZM45.1941 12.88C44.7941 13.0133 44.5941 13.32 44.5941 13.8C44.5941 14.28 44.7007 14.6933 44.9141 15.04C45.0207 14.08 45.1141 13.36 45.1941 12.88ZM60.4566 11.2C61.6832 11.2 62.6966 11.6533 63.4966 12.56C64.2966 13.44 64.7099 14.68 64.7366 16.28C65.8299 15.96 66.7899 15.5733 67.6166 15.12C68.4699 14.6667 68.9232 14.44 68.9766 14.44C69.1366 14.44 69.2166 14.5733 69.2166 14.84C69.2166 15.1067 68.8299 15.52 68.0566 16.08C67.3099 16.64 66.1766 17.2 64.6566 17.76C64.3366 20.1333 63.3766 21.9733 61.7766 23.28C60.1766 24.56 58.5766 25.2 56.9766 25.2C55.3766 25.2 54.3099 24.6133 53.7766 23.44C53.2432 22.24 52.9766 20.36 52.9766 17.8C52.9766 15.24 53.1632 12.8133 53.5366 10.52C53.9099 8.22667 54.3899 6.42667 54.9766 5.12C55.5632 3.78667 56.1632 2.77333 56.7766 2.08C57.4166 1.36 58.0166 0.999999 58.5766 0.999999C58.8432 0.999999 59.0832 1.32 59.2966 1.96C59.5366 2.6 59.6566 3.38667 59.6566 4.32C59.6566 6.37333 59.2832 8.77333 58.5366 11.52C59.0432 11.3067 59.6832 11.2 60.4566 11.2ZM62.2566 18.4C62.0432 18.4267 61.5899 18.44 60.8966 18.44C60.2299 18.44 59.4832 18.2133 58.6566 17.76C57.8566 17.28 57.3099 16.6267 57.0166 15.8C56.7499 16.4667 56.4432 17.1067 56.0966 17.72C56.1499 19.7467 56.3099 21.2 56.5766 22.08C56.8432 22.96 57.2699 23.4 57.8566 23.4C58.7899 23.4 59.6966 23.0133 60.5766 22.24C61.4832 21.44 62.0432 20.16 62.2566 18.4ZM58.6966 5.04C58.6966 3.92 58.5499 3.36 58.2566 3.36C58.0166 3.36 57.7232 3.94667 57.3766 5.12C57.0566 6.26667 56.7499 7.84 56.4566 9.84C56.1899 11.8133 56.0566 13.7733 56.0566 15.72C57.8166 10.7333 58.6966 7.17333 58.6966 5.04ZM59.8166 12.64C59.4432 12.64 59.1366 12.76 58.8966 13C58.6832 13.2133 58.5766 13.5067 58.5766 13.88C58.5766 14.7067 58.9366 15.4 59.6566 15.96C60.4032 16.4933 61.2966 16.76 62.3366 16.76C62.3099 15.6667 62.0966 14.7067 61.6966 13.88C61.2966 13.0533 60.6699 12.64 59.8166 12.64ZM79.8325 16.32C80.8992 15.9733 81.6325 15.68 82.0325 15.44C82.4592 15.1733 82.7792 14.9733 82.9925 14.84L83.4725 14.56C83.6058 14.48 83.7125 14.44 83.7925 14.44C84.0058 14.44 84.1125 14.56 84.1125 14.8C84.1125 15.04 83.6992 15.4667 82.8725 16.08C82.0458 16.6667 81.0192 17.2 79.7925 17.68C79.6058 19.92 78.8992 21.7333 77.6725 23.12C76.4458 24.5067 74.6992 25.2 72.4325 25.2C70.7792 25.2 69.5125 24.5467 68.6325 23.24C67.7525 21.9067 67.3125 20.36 67.3125 18.6C67.3125 16.8133 67.8325 15.1333 68.8725 13.56C69.9392 11.9867 71.2992 11.2 72.9525 11.2C73.6992 10.6667 74.5792 10.4 75.5925 10.4C76.6325 10.4 77.5925 10.9467 78.4725 12.04C79.3525 13.1333 79.8058 14.56 79.8325 16.32ZM77.2325 18.36L75.7925 18.44C74.5658 18.44 73.5258 18.08 72.6725 17.36C71.8192 16.6133 71.3925 15.8 71.3925 14.92C71.3925 14.04 71.5392 13.28 71.8325 12.64C70.6858 13.5467 70.1125 15.3333 70.1125 18C70.1125 19.28 70.3792 20.5067 70.9125 21.68C71.4458 22.8267 72.2858 23.4 73.4325 23.4C74.5792 23.4 75.4725 22.92 76.1125 21.96C76.7525 20.9733 77.1258 19.7733 77.2325 18.36ZM74.7525 11.72C74.3258 11.72 73.9925 11.92 73.7525 12.32C73.5125 12.6933 73.3925 13.1067 73.3925 13.56C73.3925 14.5467 73.7258 15.3467 74.3925 15.96C75.0858 16.5733 75.8858 16.88 76.7925 16.88H77.2725C77.2192 15.5733 76.9925 14.3867 76.5925 13.32C76.2192 12.2533 75.6058 11.72 74.7525 11.72ZM93.1228 25.2C92.0828 25.2 91.2961 24.9867 90.7628 24.56C90.5761 24.3733 90.4828 23.9067 90.4828 23.16C90.4828 22.3867 90.5095 21.36 90.5628 20.08C89.8695 21.8133 89.1761 23.1067 88.4828 23.96C87.8161 24.7867 86.9495 25.2 85.8828 25.2C84.8161 25.2 83.8828 24.7067 83.0828 23.72C82.2828 22.7067 81.8828 21.1333 81.8828 19C81.8828 16.84 82.4828 14.9333 83.6828 13.28C84.9095 11.6267 86.5095 10.8 88.4828 10.8C89.3361 10.8 90.2961 11.36 91.3628 12.48C91.5761 12.1867 91.9495 11.84 92.4828 11.44C93.0428 11.0133 93.5095 10.8 93.8828 10.8C94.2828 10.8 94.4828 11.3067 94.4828 12.32C94.4828 12.5867 94.4028 13.1067 94.2428 13.88C94.1095 14.6533 93.9495 15.2133 93.7628 15.56C93.5228 16.1733 93.4028 18.3467 93.4028 22.08C93.4028 22.8 93.4828 23.16 93.6428 23.16C94.0961 23.1333 94.7228 22.5733 95.5228 21.48C96.3228 20.36 97.1095 18.9333 97.8828 17.2C98.6828 15.4667 99.1628 14.6 99.3228 14.6C99.5095 14.6 99.6028 14.7067 99.6028 14.92C99.6028 15.6667 99.2161 16.8533 98.4428 18.48C96.3361 22.96 94.5628 25.2 93.1228 25.2ZM88.2428 12.4C87.4961 12.4 86.6961 12.96 85.8428 14.08C85.0161 15.1733 84.6028 16.4667 84.6028 17.96C84.6028 19.4533 84.8161 20.68 85.2428 21.64C85.6961 22.6 86.2828 23.08 87.0028 23.08C87.8828 23.08 89.1761 20.88 90.8828 16.48C90.9095 16.2667 90.9361 15.9067 90.9628 15.4C91.0161 14.8667 91.0561 14.4667 91.0828 14.2C90.8428 13.7733 90.4161 13.3733 89.8028 13C89.2161 12.6 88.6961 12.4 88.2428 12.4ZM100.675 14.56L102.875 14.32C103.089 14.32 103.275 14.44 103.435 14.68C103.595 14.92 103.675 15.1733 103.675 15.44C103.675 15.7067 103.582 16.6133 103.395 18.16C103.235 19.7067 103.155 20.9333 103.155 21.84C103.155 22.72 103.235 23.16 103.395 23.16C103.849 23.1333 104.475 22.5733 105.275 21.48C106.075 20.36 106.862 18.9333 107.635 17.2C108.435 15.4667 108.915 14.6 109.075 14.6C109.262 14.6 109.355 14.7067 109.355 14.92C109.355 15.6667 108.969 16.8533 108.195 18.48C106.089 22.96 104.315 25.2 102.875 25.2C101.835 25.2 101.049 24.9867 100.515 24.56C100.329 24.3733 100.235 23.2133 100.235 21.08C100.235 18.9467 100.462 17.12 100.915 15.6C99.3686 15.6 98.2886 15.1067 97.6753 14.12C97.3553 13.6133 97.1953 13.04 97.1953 12.4C97.1953 11.76 97.3286 11.2 97.5953 10.72C97.862 10.24 98.2353 10 98.7153 10C99.222 10 99.6753 10.2667 100.075 10.8C100.502 11.3067 100.715 11.88 100.715 12.52C100.715 13.16 100.529 13.8 100.155 14.44C100.262 14.52 100.435 14.56 100.675 14.56ZM118.791 25.2C117.884 25.2 117.177 25 116.671 24.6C116.457 24.3867 116.351 23.8267 116.351 22.92C116.351 22.0133 116.391 20.8267 116.471 19.36C115.751 21.28 115.017 22.7333 114.271 23.72C113.524 24.7067 112.577 25.2 111.431 25.2C110.311 25.2 109.351 24.7067 108.551 23.72C107.777 22.7333 107.391 21.16 107.391 19C107.391 16.84 107.991 14.9333 109.191 13.28C110.417 11.6267 112.017 10.8 113.991 10.8C114.951 10.8 115.951 11.1733 116.991 11.92C117.417 6.72 117.804 3.78667 118.151 3.12C118.311 2.82667 118.684 2.4 119.271 1.84C119.884 1.28 120.391 0.999999 120.791 0.999999C121.191 0.999999 121.391 1.62667 121.391 2.88C121.391 4.34667 121.257 5.61333 120.991 6.68C120.271 9.42667 119.817 11.1733 119.631 11.92C119.257 14.8 119.071 18.1867 119.071 22.08C119.071 22.8 119.151 23.16 119.311 23.16C119.791 23.1333 120.431 22.5733 121.231 21.48C122.031 20.3867 122.817 18.9733 123.591 17.24C124.391 15.48 124.871 14.6 125.031 14.6C125.217 14.6 125.311 14.7067 125.311 14.92C125.311 15.6667 124.924 16.8533 124.151 18.48C122.044 22.96 120.257 25.2 118.791 25.2ZM113.751 12.24C113.031 12.24 112.311 12.8133 111.591 13.96C110.871 15.1067 110.511 16.44 110.511 17.96C110.511 19.4533 110.697 20.68 111.071 21.64C111.471 22.6 111.964 23.08 112.551 23.08C113.751 23.08 115.124 20.68 116.671 15.88C116.804 14.4133 116.871 13.5467 116.871 13.28C116.097 12.5867 115.057 12.24 113.751 12.24Z" fill="black"/>
</svg>
