<svg xmlns="http://www.w3.org/2000/svg" version="1.0" preserveAspectRatio="xMidYMid meet" viewBox="0.53 0.41 511.43 511.74"><g transform="translate(0.000000,512.000000) scale(0.100000,-0.100000)" fill="#000000" stroke="none"><path d="M1330 5114 c-240 -31 -463 -110 -647 -230 -348 -226 -577 -566 -659 -979 -25 -125 -25 -405 0 -530 133 -671 668 -1152 1343 -1210 l83 -8 -96 -100 c-282 -294 -468 -649 -548 -1048 -26 -130 -46 -310 -46 -416 l0 -63 -160 0 c-150 0 -161 -1 -181 -21 -19 -19 -21 -30 -17 -95 12 -184 167 -351 370 -399 93 -22 3868 -22 3971 0 174 37 318 171 363 339 20 73 18 119 -7 149 -20 26 -21 27 -182 29 l-162 3 -6 155 c-37 915 -669 1703 -1536 1916 l-111 27 -4 151 c-3 128 -6 158 -25 198 -27 60 -91 129 -146 158 l-43 23 27 106 c176 684 -151 1391 -786 1701 -198 97 -374 139 -605 144 -85 3 -171 2 -190 0z m405 -179 c265 -55 483 -173 675 -365 192 -191 302 -394 361 -661 31 -135 33 -388 6 -516 -30 -143 -55 -213 -76 -213 -34 0 -106 -30 -143 -61 -21 -16 -38 -27 -38 -24 0 3 11 27 24 53 36 72 75 197 93 297 23 135 14 358 -21 490 -32 120 -124 313 -195 405 -64 84 -199 214 -280 269 -93 64 -252 136 -366 167 -93 26 -113 28 -295 28 -180 0 -203 -2 -293 -27 -112 -30 -274 -104 -368 -168 -81 -55 -216 -185 -280 -269 -70 -92 -164 -285 -196 -405 -25 -92 -27 -115 -27 -295 0 -182 2 -202 28 -295 31 -114 103 -273 167 -366 55 -81 185 -216 269 -280 92 -71 285 -163 405 -195 132 -35 355 -44 490 -21 259 46 479 166 669 368 49 52 86 86 83 76 -4 -10 -7 -81 -7 -157 l0 -138 -97 -22 c-194 -45 -385 -122 -561 -227 l-97 -58 -175 0 c-193 0 -276 13 -435 67 -195 66 -352 165 -505 318 -194 193 -309 408 -367 680 -25 118 -25 382 0 500 58 272 173 487 367 680 211 211 467 339 756 379 97 14 334 6 429 -14z m-335 -325 c0 -30 7 -47 25 -65 53 -54 135 -15 135 65 l0 42 53 -7 c75 -10 187 -40 247 -66 39 -17 49 -26 44 -38 -26 -63 -27 -69 -15 -99 26 -63 108 -64 145 -2 9 17 20 30 24 30 28 0 252 -224 252 -252 0 -4 -13 -15 -30 -24 -62 -37 -61 -119 2 -145 30 -12 36 -11 99 15 12 5 21 -5 38 -44 26 -60 56 -172 66 -247 l7 -53 -42 0 c-30 0 -47 -6 -65 -25 -54 -53 -15 -135 65 -135 l42 0 -7 -52 c-10 -76 -40 -188 -66 -248 -17 -39 -26 -49 -38 -44 -63 26 -69 27 -99 15 -63 -26 -64 -108 -2 -145 17 -9 30 -20 30 -24 0 -28 -224 -252 -252 -252 -4 0 -15 13 -24 30 -37 62 -119 61 -145 -2 -12 -30 -11 -36 15 -99 5 -12 -5 -21 -44 -38 -60 -26 -172 -56 -247 -66 l-53 -7 0 42 c0 30 -6 47 -25 65 -53 54 -135 15 -135 -65 l0 -42 -52 7 c-76 10 -188 40 -248 66 -39 17 -49 26 -44 38 26 63 27 69 15 99 -26 63 -108 64 -145 2 -9 -17 -20 -30 -24 -30 -28 0 -252 224 -252 252 0 4 13 15 30 24 62 37 61 119 -2 145 -30 12 -36 11 -99 -15 -12 -5 -21 5 -38 44 -26 60 -56 172 -66 248 l-7 52 42 0 c80 0 119 82 65 135 -18 19 -35 25 -65 25 l-42 0 7 53 c10 75 40 187 66 247 17 39 26 49 38 44 63 -26 69 -27 99 -15 63 26 64 108 2 145 -17 9 -30 20 -30 24 0 28 224 252 252 252 4 0 15 -13 24 -30 36 -59 116 -62 143 -4 15 33 14 49 -5 86 -19 36 -18 37 66 69 56 22 207 57 248 58 19 1 22 -4 22 -39z m1404 -1591 c55 -15 93 -46 116 -94 16 -34 20 -62 20 -156 l0 -114 -180 0 -180 0 0 118 c0 135 11 172 66 213 54 42 96 50 158 33z m259 -544 c787 -144 1397 -795 1511 -1614 9 -61 16 -161 16 -221 l0 -110 -1832 2 -1833 3 2 120 c9 497 219 975 584 1331 116 112 190 171 306 243 214 132 457 221 702 256 123 18 422 13 544 -10z m1877 -2119 c0 -25 -64 -100 -114 -133 -99 -67 47 -63 -2067 -63 -1892 0 -1918 0 -1982 20 -75 23 -156 88 -188 151 l-19 39 2185 0 c1882 0 2185 -2 2185 -14z"></path><path d="M1454 4410 c-51 -20 -54 -36 -54 -307 0 -222 -2 -253 -15 -253 -27 0 -110 -92 -123 -136 -27 -91 -8 -169 58 -235 73 -73 177 -89 270 -40 l42 22 138 -81 c77 -44 150 -80 165 -80 56 0 95 78 62 124 -7 9 -73 52 -147 95 l-135 79 -6 54 c-3 29 -14 70 -24 91 -18 39 -89 107 -112 107 -10 0 -13 50 -13 254 0 250 0 255 -22 280 -27 29 -55 38 -84 26z m73 -722 c29 -27 29 -65 1 -95 -27 -29 -65 -29 -95 -1 -29 27 -29 65 -1 95 27 29 65 29 95 1z"></path><path d="M2600 2149 c-415 -53 -808 -299 -1072 -669 -123 -172 -218 -395 -218 -512 0 -73 76 -114 130 -70 17 14 25 35 31 80 24 177 173 426 369 620 163 161 368 288 560 346 94 28 258 56 333 56 60 0 81 11 97 50 16 38 0 82 -36 99 -28 12 -97 13 -194 0z"></path></g></svg>