<svg xmlns="http://www.w3.org/2000/svg" version="1.0" preserveAspectRatio="xMidYMid meet" viewBox="61.12 0 389.89 512"><g transform="translate(0.000000,512.000000) scale(0.100000,-0.100000)" fill="#000000" stroke="none"><path d="M688 5099 c-23 -12 -46 -35 -58 -59 -20 -39 -20 -50 -18 -2339 l3 -2300 21 -28 c19 -27 383 -282 489 -344 57 -33 101 -37 148 -12 18 9 112 70 211 135 l178 120 177 -120 c203 -137 229 -152 271 -152 42 0 65 13 274 152 l178 120 177 -120 c203 -137 229 -152 271 -152 42 0 65 13 274 152 l178 120 177 -120 c97 -65 190 -127 208 -136 41 -20 85 -20 126 0 41 22 441 290 480 323 61 51 57 -115 57 2376 0 2271 0 2286 -20 2325 -13 26 -34 47 -60 60 -39 20 -54 20 -1872 20 -1805 -1 -1834 -1 -1870 -21z m3522 -2422 l0 -2143 -150 -102 -149 -102 -200 135 c-268 181 -234 181 -501 0 l-200 -135 -200 135 c-267 180 -233 180 -500 0 l-200 -135 -200 135 c-267 181 -233 181 -501 0 l-200 -135 -149 102 -150 102 0 2143 0 2143 1650 0 1650 0 0 -2143z"></path><path d="M1288 4489 c-43 -22 -78 -81 -78 -129 0 -50 35 -107 80 -130 37 -19 58 -20 370 -20 312 0 333 1 370 20 45 23 80 80 80 130 0 50 -35 107 -80 130 -37 19 -58 20 -372 20 -312 -1 -335 -2 -370 -21z"></path><path d="M1288 3889 c-43 -22 -78 -81 -78 -129 0 -50 35 -107 80 -130 39 -20 56 -20 1270 -20 1214 0 1231 0 1270 20 45 23 80 80 80 130 0 50 -35 107 -80 130 -39 20 -56 20 -1272 20 -1208 -1 -1234 -1 -1270 -21z"></path><path d="M1288 3289 c-43 -22 -78 -81 -78 -129 0 -50 35 -107 80 -130 39 -20 56 -20 1270 -20 1214 0 1231 0 1270 20 45 23 80 80 80 130 0 50 -35 107 -80 130 -39 20 -56 20 -1272 20 -1208 -1 -1234 -1 -1270 -21z"></path><path d="M2488 2689 c-42 -21 -78 -81 -78 -126 0 -24 -7 -32 -52 -52 -65 -30 -166 -129 -197 -194 -89 -185 -58 -381 84 -522 83 -84 201 -135 311 -135 80 0 154 -72 154 -151 0 -73 -76 -149 -150 -149 -46 0 -103 34 -132 78 -15 21 -42 46 -61 55 -133 63 -263 -67 -200 -200 28 -60 109 -139 178 -174 56 -30 65 -38 65 -62 0 -73 75 -147 150 -147 75 0 150 74 150 147 0 24 9 32 65 62 107 55 188 159 221 284 63 237 -99 494 -344 546 -29 6 -69 11 -89 11 -77 0 -153 74 -153 150 0 50 35 107 80 130 21 11 53 20 70 20 46 0 103 -34 132 -78 107 -160 342 -28 261 146 -25 54 -130 154 -190 182 -46 21 -53 29 -53 53 0 47 -36 105 -80 127 -49 25 -94 25 -142 -1z"></path></g></svg>